<?xml version="1.0" standalone="no"?>
<!DOCTYPE svg PUBLIC "-//W3C//DTD SVG 20010904//EN"
 "http://www.w3.org/TR/2001/REC-SVG-20010904/DTD/svg10.dtd">
<svg version="1.0" xmlns="http://www.w3.org/2000/svg"
 width="50.000000pt" height="50.000000pt" viewBox="0 0 50.000000 50.000000"
 preserveAspectRatio="xMidYMid meet">

<g transform="translate(0.000000,50.000000) scale(0.100000,-0.100000)"
fill="#000000" stroke="none">
<path d="M190 450 c0 -22 5 -40 10 -40 6 0 10 18 10 40 0 22 -4 40 -10 40 -5
0 -10 -18 -10 -40z"/>
<path d="M100 452 c0 -14 49 -56 57 -49 3 4 -4 18 -17 32 -24 25 -40 32 -40
17z"/>
<path d="M260 435 c-13 -14 -20 -28 -17 -32 8 -7 57 35 57 49 0 15 -16 8 -40
-17z"/>
<path d="M281 356 l-94 -95 -36 40 c-41 45 -85 58 -116 35 -20 -14 -19 -15 11
-48 19 -19 41 -61 53 -100 18 -54 32 -75 76 -117 77 -73 97 -71 191 21 70 68
87 99 63 113 -5 4 -15 17 -20 28 -5 12 -18 37 -30 56 l-20 34 35 36 c38 39 44
59 24 79 -23 23 -45 11 -137 -82z m125 63 c3 -6 -17 -34 -45 -63 -48 -48 -58
-72 -26 -60 18 7 29 -14 16 -30 -13 -15 -5 -27 14 -20 19 8 29 -14 15 -31 -7
-8 -9 -16 -4 -16 5 -1 15 -2 23 -3 31 -3 19 -25 -48 -89 -41 -40 -78 -67 -90
-67 -12 0 -44 21 -71 46 -38 36 -54 60 -70 110 -12 36 -33 78 -46 93 -28 33
-30 41 -9 41 30 0 62 -23 85 -61 14 -21 27 -39 30 -39 3 0 50 45 105 100 55
55 103 100 107 100 4 0 10 -5 14 -11z"/>
</g>
</svg>
